<svg xmlns="http://www.w3.org/2000/svg" viewBox="0 0 64 64" role="img" aria-label="thumbs up">
  <defs>
    <linearGradient id="skin" x1="13" x2="52" y1="7" y2="56" gradientUnits="userSpaceOnUse">
      <stop stop-color="#ffd98a"/>
      <stop offset="1" stop-color="#f4a64d"/>
    </linearGradient>
  </defs>
  <path fill="url(#skin)" stroke="#9d6430" stroke-linejoin="round" stroke-width="2.5" d="M22 29h-9a5 5 0 0 0-5 5v16a5 5 0 0 0 5 5h9V29Z"/>
  <path fill="url(#skin)" stroke="#9d6430" stroke-linejoin="round" stroke-width="2.5" d="M22 54h24c4.4 0 7.1-2.9 7.1-6.3 0-1.3-.4-2.4-1.1-3.3 2.2-.9 3.5-2.9 3.5-5.2 0-1.7-.7-3.3-1.9-4.3 1.6-1 2.6-2.6 2.6-4.6 0-3.2-2.5-5.7-6-5.7H39.5c1.4-4.8 2.1-8.6 1.2-11.8-.7-2.6-2.6-4.3-5.1-4.3-1.7 0-2.7.9-3.1 2.5-1 4.1-3.8 9.6-7.8 14.1L22 28.2V54Z"/>
  <path fill="#fff5d6" opacity=".45" d="M28.7 28.5c3.8-4.2 6.1-8.7 7.1-12.4.3-1.2.8-1.7 1.5-1.6 1.1.2 1.7 1.2 1.7 2.6 0 3.3-1.5 7.8-2.7 10.9-.4 1.1.4 2.3 1.6 2.3h12.2c1.2 0 2.2.8 2.2 1.9 0 1.2-.9 2-2.1 2h-8.4v2.6h8.7c1.1 0 2 .8 2 1.9s-.9 1.9-2 1.9h-9.2v2.7h7.4c1 0 1.8.8 1.8 1.8 0 1.1-.8 1.9-1.9 1.9h-7.9v2.6h4.8c1 0 1.8.8 1.8 1.8s-.8 1.8-1.8 1.8H25.2V30.7l3.5-2.2Z"/>
  <rect width="8" height="20" x="12" y="32" fill="#f1f5ff" stroke="#6f7d95" stroke-width="2" rx="3"/>
</svg>
