<svg xmlns="http://www.w3.org/2000/svg" viewBox="0 0 64 64" role="img" aria-label="money face">
  <defs>
    <radialGradient id="face" cx="23" cy="18" r="42" gradientUnits="userSpaceOnUse">
      <stop stop-color="#fff19c"/>
      <stop offset=".62" stop-color="#ffd24a"/>
      <stop offset="1" stop-color="#f4a825"/>
    </radialGradient>
  </defs>
  <circle cx="32" cy="32" r="27" fill="url(#face)" stroke="#bd7c10" stroke-width="2"/>
  <circle cx="22" cy="25" r="8" fill="#19a45b" stroke="#0d6f3f" stroke-width="2"/>
  <circle cx="42" cy="25" r="8" fill="#19a45b" stroke="#0d6f3f" stroke-width="2"/>
  <path fill="none" stroke="#eaffcf" stroke-linecap="round" stroke-width="3" d="M22 19v12M18 22.5c1.9-2.4 7.7-2 7.7 1.3 0 3.8-7.7 1.2-7.7 4.7 0 3 5.4 3.4 8 .8M42 19v12M38 22.5c1.9-2.4 7.7-2 7.7 1.3 0 3.8-7.7 1.2-7.7 4.7 0 3 5.4 3.4 8 .8"/>
  <path fill="#0f8b4a" stroke="#095c34" stroke-linejoin="round" stroke-width="2" d="M21 40c5 3.2 13.5 4.3 22 0 1.6-.8 3.3.7 2.7 2.4-1.8 5.2-7 9-13.7 9s-11.9-3.8-13.7-9c-.6-1.7 1.1-3.2 2.7-2.4Z"/>
  <path fill="none" stroke="#dfffcf" stroke-linecap="round" stroke-width="2" d="M23 43.3c5.3 2.1 12.6 2.2 18.2 0"/>
</svg>
